<svg width="8" height="6" viewBox="0 0 8 6" fill="none" xmlns="http://www.w3.org/2000/svg">
<path d="M7.9122 0.753633C7.85282 0.676682 7.76649 0.612643 7.66207 0.568076C7.55764 0.523508 7.43887 0.500014 7.31792 0.5H0.68196C0.561079 0.500043 0.442383 0.523539 0.338019 0.568085C0.233654 0.612632 0.147368 0.676628 0.0879894 0.753525C0.0286107 0.830423 -0.00172854 0.917462 7.6053e-05 1.00573C0.00188065 1.09401 0.0357643 1.18035 0.09826 1.25591L3.41624 5.25972C3.47702 5.33306 3.56267 5.3937 3.66493 5.43579C3.76718 5.47789 3.88257 5.5 3.99994 5.5C4.11732 5.5 4.23271 5.47789 4.33496 5.43579C4.43721 5.3937 4.52287 5.33306 4.58364 5.25972L7.90163 1.25591C7.96414 1.18038 7.99806 1.09407 7.99992 1.00582C8.00178 0.917566 7.97151 0.830537 7.9122 0.753633Z" fill="#E4EBFB"/>
</svg>
