<svg width="20" height="20" viewBox="0 0 20 20" fill="none" xmlns="http://www.w3.org/2000/svg">
<circle cx="10" cy="10" r="10" fill="#FF0100"/>
<path d="M14.3915 7.67502C14.342 7.47727 14.2412 7.29609 14.0993 7.14977C13.9573 7.00345 13.7793 6.89718 13.5832 6.84169C12.8665 6.66669 9.99983 6.66669 9.99983 6.66669C9.99983 6.66669 7.13316 6.66669 6.4165 6.85835C6.22035 6.91385 6.04232 7.02012 5.90039 7.16644C5.75846 7.31276 5.65766 7.49394 5.60816 7.69169C5.477 8.419 5.41285 9.15682 5.4165 9.89585C5.41182 10.6405 5.47598 11.3839 5.60816 12.1167C5.66273 12.3083 5.76579 12.4826 5.90739 12.6227C6.04899 12.7629 6.22434 12.8641 6.4165 12.9167C7.13316 13.1084 9.99983 13.1084 9.99983 13.1084C9.99983 13.1084 12.8665 13.1084 13.5832 12.9167C13.7793 12.8612 13.9573 12.7549 14.0993 12.6086C14.2412 12.4623 14.342 12.2811 14.3915 12.0834C14.5216 11.3615 14.5858 10.6293 14.5832 9.89585C14.5878 9.15125 14.5237 8.40781 14.3915 7.67502Z" fill="white"/>
<path d="M9.0625 11.2583L11.4583 9.89583L9.0625 8.53333V11.2583Z" fill="#FF0100"/>
</svg>
